<svg width="570" height="356" viewBox="0 0 570 356" fill="none" xmlns="http://www.w3.org/2000/svg">
<rect x="100.5" y="0.5" width="117" height="297" stroke="#ECECEC"/>
<rect x="217.5" y="0.5" width="117" height="297" stroke="#ECECEC"/>
<rect x="334.5" y="0.5" width="117" height="297" stroke="#ECECEC"/>
<rect x="451.5" y="0.5" width="117" height="297" stroke="#ECECEC"/>
<rect x="100.5" y="75.5" width="469" height="74.25" stroke="#ECECEC"/>
<rect x="100.5" y="150.5" width="469" height="74.25" stroke="#ECECEC"/>
<g opacity="0.24" clip-path="url(#clip0_17_2206)">
<path d="M551.964 96.2596C560.982 96.2596 560.982 56.0254 570 56.0254V340H-61.2536V313.237C-51.4842 313.237 -52.2357 328.038 -43.2178 328.038C-34.1999 328.038 -34.1999 286.007 -25.1819 286.007C-16.1641 286.007 -17.6671 298.94 -7.14612 298.94C3.37476 298.94 0.368774 323.152 10.8896 323.152C21.4106 323.152 19.1561 313.956 28.9255 313.956C38.6949 313.956 36.8162 270.129 46.9613 270.129C57.1064 270.129 54.4762 284.427 64.9971 284.427C75.518 284.427 73.6393 304.113 83.0329 304.113C92.4266 304.113 90.9236 238.732 101.069 238.732C111.214 238.732 110.087 261.364 119.105 261.364C128.122 261.364 126.62 229.679 137.14 229.679C147.661 229.679 145.407 249.94 155.176 249.94C164.946 249.94 163.443 167.101 173.212 167.101C182.981 167.101 181.103 190.163 191.248 190.163C201.393 190.163 198.763 205.395 209.284 205.395C219.805 205.395 217.174 165.879 227.319 165.879C237.465 165.879 234.834 185.278 245.355 185.278C255.876 185.278 253.997 153.306 263.391 153.306C272.785 153.306 271.658 99.852 281.427 99.852C291.196 99.852 289.693 189.301 299.463 189.301C309.232 189.301 308.105 126.651 317.499 126.651C326.892 126.651 325.013 154.096 335.534 154.096C346.055 154.096 343.801 178.74 353.57 178.74C363.34 178.74 362.212 137.931 371.606 137.931C381 137.931 380.248 176.728 389.642 176.728C399.035 176.728 397.908 159.485 407.678 159.485C417.447 159.485 415.944 123.921 425.713 123.921C435.483 123.921 433.98 138.146 443.749 138.146C453.519 138.146 452.767 86.2011 461.785 86.2011C470.803 86.2011 469.3 157.401 479.821 157.401C490.342 157.401 487.712 109.048 497.857 109.048C508.002 109.048 506.499 128.95 515.893 128.95C525.286 128.95 524.535 79.3756 533.928 79.3756C543.322 79.3756 542.946 96.2596 551.964 96.2596Z" fill="url(#paint0_linear_17_2206)"/>
</g>
<g clip-path="url(#clip1_17_2206)">
<path d="M570 56.0254C560.982 56.0254 560.982 96.2596 551.964 96.2596C542.946 96.2596 543.322 79.3756 533.928 79.3756C524.535 79.3756 525.286 128.95 515.893 128.95C506.499 128.95 508.002 109.048 497.857 109.048C487.712 109.048 490.342 157.401 479.821 157.401C469.3 157.401 470.803 86.2011 461.785 86.2011C452.767 86.2011 453.519 138.146 443.749 138.146C433.98 138.146 435.483 123.921 425.713 123.921C415.944 123.921 417.447 159.485 407.678 159.485C397.908 159.485 399.035 176.728 389.642 176.728C380.248 176.728 381 137.931 371.606 137.931C362.212 137.931 363.34 178.74 353.57 178.74C343.801 178.74 346.055 154.096 335.534 154.096C325.013 154.096 326.892 126.651 317.499 126.651C308.105 126.651 309.232 189.301 299.463 189.301C289.693 189.301 291.196 99.852 281.427 99.852C271.658 99.852 272.785 153.306 263.391 153.306C253.997 153.306 255.876 185.278 245.355 185.278C234.834 185.278 237.465 165.879 227.319 165.879C217.174 165.879 219.805 205.395 209.284 205.395C198.763 205.395 201.393 190.163 191.248 190.163C181.103 190.163 182.981 167.101 173.212 167.101C163.443 167.101 164.946 249.94 155.176 249.94C145.407 249.94 147.661 229.679 137.14 229.679C126.619 229.679 128.122 261.364 119.105 261.364C110.087 261.364 111.214 238.732 101.069 238.732C90.9236 238.732 92.4266 304.113 83.0329 304.113C73.6393 304.113 75.518 284.427 64.9971 284.427C54.4762 284.427 57.1065 270.129 46.9613 270.129C36.8162 270.129 38.6949 313.956 28.9255 313.956C19.1561 313.956 21.4105 323.152 10.8896 323.152C0.368755 323.152 3.37477 298.94 -7.14612 298.94C-17.667 298.94 -16.164 286.007 -25.1819 286.007C-34.1999 286.007 -34.1999 328.038 -43.2178 328.038C-52.2357 328.038 -51.4842 313.237 -61.2536 313.237" stroke="#7B61FF" stroke-width="2"/>
</g>
<rect x="281" y="76.991" width="6" height="6" rx="0.751492" transform="rotate(45 281 76.991)" fill="#336EE1"/>
<rect x="239" y="41.5" width="83" height="40" rx="2.25448" fill="#336EE1"/>
<path d="M261.89 58.468H260.654C260.318 58.468 260.066 58.372 259.898 58.18C259.73 57.996 259.646 57.764 259.646 57.484V56.632C259.166 56.584 258.73 56.456 258.338 56.248C257.946 56.04 257.614 55.756 257.342 55.396C257.07 55.028 256.858 54.588 256.706 54.076C256.562 53.556 256.49 52.968 256.49 52.312C256.49 51.608 256.574 50.988 256.742 50.452C256.91 49.916 257.146 49.464 257.45 49.096C257.762 48.728 258.134 48.452 258.566 48.268C259.006 48.076 259.498 47.98 260.042 47.98C260.578 47.98 261.066 48.076 261.506 48.268C261.946 48.452 262.318 48.728 262.622 49.096C262.934 49.464 263.174 49.916 263.342 50.452C263.51 50.988 263.594 51.608 263.594 52.312C263.594 53.6 263.326 54.608 262.79 55.336C262.254 56.056 261.526 56.48 260.606 56.608V57.628H261.89V58.468ZM260.042 55.744C260.402 55.744 260.734 55.68 261.038 55.552C261.342 55.424 261.602 55.24 261.818 55C262.042 54.76 262.214 54.472 262.334 54.136C262.454 53.8 262.514 53.424 262.514 53.008V51.616C262.514 51.2 262.454 50.824 262.334 50.488C262.214 50.152 262.042 49.864 261.818 49.624C261.602 49.384 261.342 49.2 261.038 49.072C260.734 48.944 260.402 48.88 260.042 48.88C259.682 48.88 259.35 48.944 259.046 49.072C258.742 49.2 258.478 49.384 258.254 49.624C258.038 49.864 257.87 50.152 257.75 50.488C257.63 50.824 257.57 51.2 257.57 51.616V53.008C257.57 53.424 257.63 53.8 257.75 54.136C257.87 54.472 258.038 54.76 258.254 55C258.478 55.24 258.742 55.424 259.046 55.552C259.35 55.68 259.682 55.744 260.042 55.744ZM270.986 56.5H265.49V55.468L268.226 52.948C268.618 52.588 268.946 52.208 269.21 51.808C269.474 51.4 269.606 50.992 269.606 50.584V50.44C269.606 49.976 269.478 49.6 269.222 49.312C268.966 49.024 268.578 48.88 268.058 48.88C267.802 48.88 267.578 48.916 267.386 48.988C267.194 49.06 267.026 49.16 266.882 49.288C266.746 49.416 266.63 49.568 266.534 49.744C266.446 49.912 266.374 50.096 266.318 50.296L265.418 49.948C265.498 49.7 265.606 49.46 265.742 49.228C265.886 48.988 266.062 48.776 266.27 48.592C266.486 48.408 266.742 48.26 267.038 48.148C267.342 48.036 267.698 47.98 268.106 47.98C268.514 47.98 268.878 48.04 269.198 48.16C269.518 48.28 269.786 48.448 270.002 48.664C270.218 48.88 270.382 49.136 270.494 49.432C270.614 49.728 270.674 50.056 270.674 50.416C270.674 50.744 270.626 51.048 270.53 51.328C270.442 51.608 270.318 51.876 270.158 52.132C269.998 52.38 269.802 52.624 269.57 52.864C269.346 53.104 269.102 53.344 268.838 53.584L266.582 55.612H270.986V56.5ZM281.619 56.5H276.123V55.468L278.859 52.948C279.251 52.588 279.579 52.208 279.843 51.808C280.107 51.4 280.239 50.992 280.239 50.584V50.44C280.239 49.976 280.111 49.6 279.855 49.312C279.599 49.024 279.211 48.88 278.691 48.88C278.435 48.88 278.211 48.916 278.019 48.988C277.827 49.06 277.659 49.16 277.515 49.288C277.379 49.416 277.263 49.568 277.167 49.744C277.079 49.912 277.007 50.096 276.951 50.296L276.051 49.948C276.131 49.7 276.239 49.46 276.375 49.228C276.519 48.988 276.695 48.776 276.903 48.592C277.119 48.408 277.375 48.26 277.671 48.148C277.975 48.036 278.331 47.98 278.739 47.98C279.147 47.98 279.511 48.04 279.831 48.16C280.151 48.28 280.419 48.448 280.635 48.664C280.851 48.88 281.015 49.136 281.127 49.432C281.247 49.728 281.307 50.056 281.307 50.416C281.307 50.744 281.259 51.048 281.163 51.328C281.075 51.608 280.951 51.876 280.791 52.132C280.631 52.38 280.435 52.624 280.203 52.864C279.979 53.104 279.735 53.344 279.471 53.584L277.215 55.612H281.619V56.5ZM286.319 56.644C285.319 56.644 284.587 56.264 284.123 55.504C283.667 54.744 283.439 53.68 283.439 52.312C283.439 50.944 283.667 49.88 284.123 49.12C284.587 48.36 285.319 47.98 286.319 47.98C287.319 47.98 288.047 48.36 288.503 49.12C288.967 49.88 289.199 50.944 289.199 52.312C289.199 53.68 288.967 54.744 288.503 55.504C288.047 56.264 287.319 56.644 286.319 56.644ZM286.319 55.768C286.647 55.768 286.927 55.7 287.159 55.564C287.391 55.428 287.579 55.236 287.723 54.988C287.867 54.74 287.971 54.448 288.035 54.112C288.107 53.776 288.143 53.404 288.143 52.996V51.628C288.143 51.22 288.107 50.848 288.035 50.512C287.971 50.176 287.867 49.884 287.723 49.636C287.579 49.388 287.391 49.196 287.159 49.06C286.927 48.924 286.647 48.856 286.319 48.856C285.991 48.856 285.711 48.924 285.479 49.06C285.247 49.196 285.059 49.388 284.915 49.636C284.771 49.884 284.663 50.176 284.591 50.512C284.527 50.848 284.495 51.22 284.495 51.628V52.996C284.495 53.404 284.527 53.776 284.591 54.112C284.663 54.448 284.771 54.74 284.915 54.988C285.059 55.236 285.247 55.428 285.479 55.564C285.711 55.7 285.991 55.768 286.319 55.768ZM296.611 56.5H291.115V55.468L293.851 52.948C294.243 52.588 294.571 52.208 294.835 51.808C295.099 51.4 295.231 50.992 295.231 50.584V50.44C295.231 49.976 295.103 49.6 294.847 49.312C294.591 49.024 294.203 48.88 293.683 48.88C293.427 48.88 293.203 48.916 293.011 48.988C292.819 49.06 292.651 49.16 292.507 49.288C292.371 49.416 292.255 49.568 292.159 49.744C292.071 49.912 291.999 50.096 291.943 50.296L291.043 49.948C291.123 49.7 291.231 49.46 291.367 49.228C291.511 48.988 291.687 48.776 291.895 48.592C292.111 48.408 292.367 48.26 292.663 48.148C292.967 48.036 293.323 47.98 293.731 47.98C294.139 47.98 294.503 48.04 294.823 48.16C295.143 48.28 295.411 48.448 295.627 48.664C295.843 48.88 296.007 49.136 296.119 49.432C296.239 49.728 296.299 50.056 296.299 50.416C296.299 50.744 296.251 51.048 296.155 51.328C296.067 51.608 295.943 51.876 295.783 52.132C295.623 52.38 295.427 52.624 295.195 52.864C294.971 53.104 294.727 53.344 294.463 53.584L292.207 55.612H296.611V56.5ZM304.106 56.5H298.61V55.468L301.346 52.948C301.738 52.588 302.066 52.208 302.33 51.808C302.594 51.4 302.726 50.992 302.726 50.584V50.44C302.726 49.976 302.598 49.6 302.342 49.312C302.086 49.024 301.698 48.88 301.178 48.88C300.922 48.88 300.698 48.916 300.506 48.988C300.314 49.06 300.146 49.16 300.002 49.288C299.866 49.416 299.75 49.568 299.654 49.744C299.566 49.912 299.494 50.096 299.438 50.296L298.538 49.948C298.618 49.7 298.726 49.46 298.862 49.228C299.006 48.988 299.182 48.776 299.39 48.592C299.606 48.408 299.862 48.26 300.158 48.148C300.462 48.036 300.818 47.98 301.226 47.98C301.634 47.98 301.998 48.04 302.318 48.16C302.638 48.28 302.906 48.448 303.122 48.664C303.338 48.88 303.502 49.136 303.614 49.432C303.734 49.728 303.794 50.056 303.794 50.416C303.794 50.744 303.746 51.048 303.65 51.328C303.562 51.608 303.438 51.876 303.278 52.132C303.118 52.38 302.922 52.624 302.69 52.864C302.466 53.104 302.222 53.344 301.958 53.584L299.702 55.612H304.106V56.5ZM250.198 73.484V72.5C249.59 72.46 249.074 72.312 248.65 72.056C248.234 71.792 247.878 71.464 247.582 71.072L248.29 70.436C248.546 70.78 248.826 71.056 249.13 71.264C249.442 71.464 249.802 71.592 250.21 71.648V68.564C249.386 68.38 248.782 68.112 248.398 67.76C248.022 67.4 247.834 66.908 247.834 66.284C247.834 65.964 247.89 65.68 248.002 65.432C248.122 65.176 248.286 64.956 248.494 64.772C248.702 64.588 248.95 64.444 249.238 64.34C249.526 64.228 249.846 64.156 250.198 64.124V63.14H250.942V64.112C251.486 64.16 251.954 64.3 252.346 64.532C252.746 64.756 253.09 65.068 253.378 65.468L252.646 66.02C252.446 65.74 252.206 65.512 251.926 65.336C251.646 65.152 251.314 65.032 250.93 64.976V67.784L251.038 67.808C251.87 67.992 252.474 68.264 252.85 68.624C253.234 68.976 253.426 69.468 253.426 70.1C253.426 70.788 253.202 71.344 252.754 71.768C252.314 72.184 251.71 72.428 250.942 72.5V73.484H250.198ZM252.478 70.16C252.478 69.752 252.358 69.44 252.118 69.224C251.886 69.008 251.49 68.832 250.93 68.696V71.648C251.41 71.584 251.786 71.424 252.058 71.168C252.338 70.904 252.478 70.568 252.478 70.16ZM248.782 66.212C248.782 66.62 248.898 66.928 249.13 67.136C249.37 67.336 249.73 67.5 250.21 67.628V64.976C249.778 65.032 249.43 65.164 249.166 65.372C248.91 65.58 248.782 65.86 248.782 66.212ZM260.406 65.012H256.734L256.494 68.204H256.578C256.778 67.924 257.002 67.7 257.25 67.532C257.506 67.364 257.854 67.28 258.294 67.28C258.654 67.28 258.986 67.34 259.29 67.46C259.594 67.58 259.858 67.752 260.082 67.976C260.306 68.192 260.478 68.46 260.598 68.78C260.726 69.1 260.79 69.464 260.79 69.872C260.79 70.28 260.726 70.656 260.598 71C260.47 71.336 260.282 71.628 260.034 71.876C259.794 72.116 259.498 72.304 259.146 72.44C258.802 72.576 258.41 72.644 257.97 72.644C257.618 72.644 257.306 72.604 257.034 72.524C256.77 72.444 256.534 72.336 256.326 72.2C256.118 72.064 255.934 71.912 255.774 71.744C255.622 71.576 255.482 71.4 255.354 71.216L256.11 70.64C256.214 70.808 256.322 70.96 256.434 71.096C256.554 71.232 256.682 71.348 256.818 71.444C256.962 71.54 257.126 71.616 257.31 71.672C257.494 71.72 257.714 71.744 257.97 71.744C258.546 71.744 258.982 71.592 259.278 71.288C259.574 70.984 259.722 70.556 259.722 70.004V69.884C259.722 69.332 259.574 68.904 259.278 68.6C258.982 68.296 258.546 68.144 257.97 68.144C257.586 68.144 257.282 68.216 257.058 68.36C256.842 68.496 256.646 68.66 256.47 68.852L255.618 68.732L255.918 64.124H260.406V65.012ZM263.558 71.096C263.814 71.096 263.998 71.164 264.11 71.3C264.23 71.428 264.29 71.596 264.29 71.804V71.972C264.29 72.3 264.194 72.66 264.002 73.052C263.81 73.452 263.542 73.8 263.198 74.096H262.394C262.634 73.84 262.826 73.596 262.97 73.364C263.122 73.14 263.23 72.888 263.294 72.608C263.134 72.568 263.014 72.492 262.934 72.38C262.862 72.268 262.826 72.132 262.826 71.972V71.804C262.826 71.596 262.882 71.428 262.994 71.3C263.114 71.164 263.302 71.096 263.558 71.096ZM269.996 72.5V70.856H265.952V69.968L269.456 64.124H270.956V70.016H272.168V70.856H270.956V72.5H269.996ZM266.9 70.016H269.996V64.904H269.936L266.9 70.016ZM279.388 67.196C279.388 67.82 279.296 68.408 279.112 68.96C278.928 69.504 278.688 70.004 278.392 70.46C278.104 70.908 277.784 71.308 277.432 71.66C277.08 72.004 276.736 72.284 276.4 72.5H275.104C275.552 72.172 275.952 71.852 276.304 71.54C276.656 71.228 276.964 70.904 277.228 70.568C277.492 70.224 277.716 69.86 277.9 69.476C278.084 69.084 278.232 68.644 278.344 68.156L278.284 68.132C278.084 68.476 277.824 68.764 277.504 68.996C277.192 69.22 276.78 69.332 276.268 69.332C275.908 69.332 275.576 69.272 275.272 69.152C274.968 69.032 274.708 68.86 274.492 68.636C274.276 68.412 274.104 68.144 273.976 67.832C273.856 67.512 273.796 67.152 273.796 66.752C273.796 66.344 273.86 65.972 273.988 65.636C274.124 65.292 274.312 65 274.552 64.76C274.8 64.512 275.092 64.32 275.428 64.184C275.772 64.048 276.156 63.98 276.58 63.98C277.012 63.98 277.4 64.056 277.744 64.208C278.096 64.352 278.392 64.564 278.632 64.844C278.88 65.116 279.068 65.452 279.196 65.852C279.324 66.252 279.388 66.7 279.388 67.196ZM276.592 68.48C277.144 68.48 277.572 68.328 277.876 68.024C278.188 67.72 278.344 67.284 278.344 66.716V66.62C278.344 66.052 278.188 65.616 277.876 65.312C277.572 65.008 277.144 64.856 276.592 64.856C276.04 64.856 275.608 65.008 275.296 65.312C274.992 65.616 274.84 66.052 274.84 66.62V66.716C274.84 67.284 274.992 67.72 275.296 68.024C275.608 68.328 276.04 68.48 276.592 68.48ZM286.884 72.5H281.388V71.468L284.124 68.948C284.516 68.588 284.844 68.208 285.108 67.808C285.372 67.4 285.504 66.992 285.504 66.584V66.44C285.504 65.976 285.376 65.6 285.12 65.312C284.864 65.024 284.476 64.88 283.956 64.88C283.7 64.88 283.476 64.916 283.284 64.988C283.092 65.06 282.924 65.16 282.78 65.288C282.644 65.416 282.528 65.568 282.432 65.744C282.344 65.912 282.272 66.096 282.216 66.296L281.316 65.948C281.396 65.7 281.504 65.46 281.64 65.228C281.784 64.988 281.96 64.776 282.168 64.592C282.384 64.408 282.64 64.26 282.936 64.148C283.24 64.036 283.596 63.98 284.004 63.98C284.412 63.98 284.776 64.04 285.096 64.16C285.416 64.28 285.684 64.448 285.9 64.664C286.116 64.88 286.28 65.136 286.392 65.432C286.512 65.728 286.572 66.056 286.572 66.416C286.572 66.744 286.524 67.048 286.428 67.328C286.34 67.608 286.216 67.876 286.056 68.132C285.896 68.38 285.7 68.624 285.468 68.864C285.244 69.104 285 69.344 284.736 69.584L282.48 71.612H286.884V72.5ZM289.616 71.096C289.872 71.096 290.056 71.164 290.168 71.3C290.288 71.428 290.348 71.596 290.348 71.804V71.972C290.348 72.3 290.252 72.66 290.06 73.052C289.868 73.452 289.6 73.8 289.256 74.096H288.452C288.692 73.84 288.884 73.596 289.028 73.364C289.18 73.14 289.288 72.888 289.352 72.608C289.192 72.568 289.072 72.492 288.992 72.38C288.92 72.268 288.884 72.132 288.884 71.972V71.804C288.884 71.596 288.94 71.428 289.052 71.3C289.172 71.164 289.36 71.096 289.616 71.096ZM295.154 72.644C294.674 72.644 294.254 72.584 293.894 72.464C293.534 72.336 293.23 72.164 292.982 71.948C292.742 71.732 292.558 71.476 292.43 71.18C292.31 70.884 292.25 70.564 292.25 70.22C292.25 69.644 292.406 69.188 292.718 68.852C293.03 68.516 293.438 68.28 293.942 68.144V68.048C293.502 67.896 293.15 67.652 292.886 67.316C292.63 66.972 292.502 66.56 292.502 66.08C292.502 65.44 292.734 64.932 293.198 64.556C293.662 64.172 294.314 63.98 295.154 63.98C295.994 63.98 296.646 64.172 297.11 64.556C297.574 64.932 297.806 65.44 297.806 66.08C297.806 66.56 297.674 66.972 297.41 67.316C297.154 67.652 296.806 67.896 296.366 68.048V68.144C296.87 68.28 297.278 68.516 297.59 68.852C297.902 69.188 298.058 69.644 298.058 70.22C298.058 70.564 297.994 70.884 297.866 71.18C297.746 71.476 297.562 71.732 297.314 71.948C297.074 72.164 296.774 72.336 296.414 72.464C296.054 72.584 295.634 72.644 295.154 72.644ZM295.154 71.768C295.738 71.768 296.19 71.64 296.51 71.384C296.83 71.12 296.99 70.748 296.99 70.268V70.016C296.99 69.536 296.83 69.168 296.51 68.912C296.19 68.648 295.738 68.516 295.154 68.516C294.57 68.516 294.118 68.648 293.798 68.912C293.478 69.168 293.318 69.536 293.318 70.016V70.268C293.318 70.748 293.478 71.12 293.798 71.384C294.118 71.64 294.57 71.768 295.154 71.768ZM295.154 67.676C295.682 67.676 296.082 67.564 296.354 67.34C296.626 67.116 296.762 66.788 296.762 66.356V66.176C296.762 65.744 296.626 65.416 296.354 65.192C296.082 64.968 295.682 64.856 295.154 64.856C294.626 64.856 294.226 64.968 293.954 65.192C293.682 65.416 293.546 65.744 293.546 66.176V66.356C293.546 66.788 293.682 67.116 293.954 67.34C294.226 67.564 294.626 67.676 295.154 67.676ZM303.55 72.5V70.856H299.506V69.968L303.01 64.124H304.51V70.016H305.722V70.856H304.51V72.5H303.55ZM300.454 70.016H303.55V64.904H303.49L300.454 70.016ZM310.146 72.644C309.146 72.644 308.414 72.264 307.95 71.504C307.494 70.744 307.266 69.68 307.266 68.312C307.266 66.944 307.494 65.88 307.95 65.12C308.414 64.36 309.146 63.98 310.146 63.98C311.146 63.98 311.874 64.36 312.33 65.12C312.794 65.88 313.026 66.944 313.026 68.312C313.026 69.68 312.794 70.744 312.33 71.504C311.874 72.264 311.146 72.644 310.146 72.644ZM310.146 71.768C310.474 71.768 310.754 71.7 310.986 71.564C311.218 71.428 311.406 71.236 311.55 70.988C311.694 70.74 311.798 70.448 311.862 70.112C311.934 69.776 311.97 69.404 311.97 68.996V67.628C311.97 67.22 311.934 66.848 311.862 66.512C311.798 66.176 311.694 65.884 311.55 65.636C311.406 65.388 311.218 65.196 310.986 65.06C310.754 64.924 310.474 64.856 310.146 64.856C309.818 64.856 309.538 64.924 309.306 65.06C309.074 65.196 308.886 65.388 308.742 65.636C308.598 65.884 308.49 66.176 308.418 66.512C308.354 66.848 308.322 67.22 308.322 67.628V68.996C308.322 69.404 308.354 69.776 308.418 70.112C308.49 70.448 308.598 70.74 308.742 70.988C308.886 71.236 309.074 71.428 309.306 71.564C309.538 71.7 309.818 71.768 310.146 71.768Z" fill="white"/>
<circle cx="281" cy="101.5" r="3.5" fill="white" stroke="#336EE1"/>
<path d="M117.299 351.109V352H111.715V351.221L114.51 348.109C114.854 347.727 115.119 347.402 115.307 347.137C115.498 346.867 115.631 346.627 115.705 346.416C115.783 346.201 115.822 345.982 115.822 345.76C115.822 345.479 115.764 345.225 115.646 344.998C115.533 344.768 115.365 344.584 115.143 344.447C114.92 344.311 114.65 344.242 114.334 344.242C113.955 344.242 113.639 344.316 113.385 344.465C113.135 344.609 112.947 344.812 112.822 345.074C112.697 345.336 112.635 345.637 112.635 345.977H111.551C111.551 345.496 111.656 345.057 111.867 344.658C112.078 344.26 112.391 343.943 112.805 343.709C113.219 343.471 113.729 343.352 114.334 343.352C114.873 343.352 115.334 343.447 115.717 343.639C116.1 343.826 116.393 344.092 116.596 344.436C116.803 344.775 116.906 345.174 116.906 345.631C116.906 345.881 116.863 346.135 116.777 346.393C116.695 346.646 116.58 346.9 116.432 347.154C116.287 347.408 116.117 347.658 115.922 347.904C115.73 348.15 115.525 348.393 115.307 348.631L113.021 351.109H117.299ZM123.814 347.055V348.355C123.814 349.055 123.752 349.645 123.627 350.125C123.502 350.605 123.322 350.992 123.088 351.285C122.854 351.578 122.57 351.791 122.238 351.924C121.91 352.053 121.539 352.117 121.125 352.117C120.797 352.117 120.494 352.076 120.217 351.994C119.939 351.912 119.689 351.781 119.467 351.602C119.248 351.418 119.061 351.18 118.904 350.887C118.748 350.594 118.629 350.238 118.547 349.82C118.465 349.402 118.424 348.914 118.424 348.355V347.055C118.424 346.355 118.486 345.77 118.611 345.297C118.74 344.824 118.922 344.445 119.156 344.16C119.391 343.871 119.672 343.664 120 343.539C120.332 343.414 120.703 343.352 121.113 343.352C121.445 343.352 121.75 343.393 122.027 343.475C122.309 343.553 122.559 343.68 122.777 343.855C122.996 344.027 123.182 344.258 123.334 344.547C123.49 344.832 123.609 345.182 123.691 345.596C123.773 346.01 123.814 346.496 123.814 347.055ZM122.725 348.531V346.873C122.725 346.49 122.701 346.154 122.654 345.865C122.611 345.572 122.547 345.322 122.461 345.115C122.375 344.908 122.266 344.74 122.133 344.611C122.004 344.482 121.854 344.389 121.682 344.33C121.514 344.268 121.324 344.236 121.113 344.236C120.855 344.236 120.627 344.285 120.428 344.383C120.229 344.477 120.061 344.627 119.924 344.834C119.791 345.041 119.689 345.312 119.619 345.648C119.549 345.984 119.514 346.393 119.514 346.873V348.531C119.514 348.914 119.535 349.252 119.578 349.545C119.625 349.838 119.693 350.092 119.783 350.307C119.873 350.518 119.982 350.691 120.111 350.828C120.24 350.965 120.389 351.066 120.557 351.133C120.729 351.195 120.918 351.227 121.125 351.227C121.391 351.227 121.623 351.176 121.822 351.074C122.021 350.973 122.188 350.814 122.32 350.6C122.457 350.381 122.559 350.102 122.625 349.762C122.691 349.418 122.725 349.008 122.725 348.531ZM128.771 343.422V352H127.688V344.775L125.502 345.572V344.594L128.602 343.422H128.771ZM137.338 349.691C137.338 350.211 137.217 350.652 136.975 351.016C136.736 351.375 136.412 351.648 136.002 351.836C135.596 352.023 135.137 352.117 134.625 352.117C134.113 352.117 133.652 352.023 133.242 351.836C132.832 351.648 132.508 351.375 132.27 351.016C132.031 350.652 131.912 350.211 131.912 349.691C131.912 349.352 131.977 349.041 132.105 348.76C132.238 348.475 132.424 348.227 132.662 348.016C132.904 347.805 133.189 347.643 133.518 347.529C133.85 347.412 134.215 347.354 134.613 347.354C135.137 347.354 135.604 347.455 136.014 347.658C136.424 347.857 136.746 348.133 136.98 348.484C137.219 348.836 137.338 349.238 137.338 349.691ZM136.248 349.668C136.248 349.352 136.18 349.072 136.043 348.83C135.906 348.584 135.715 348.393 135.469 348.256C135.223 348.119 134.938 348.051 134.613 348.051C134.281 348.051 133.994 348.119 133.752 348.256C133.514 348.393 133.328 348.584 133.195 348.83C133.062 349.072 132.996 349.352 132.996 349.668C132.996 349.996 133.061 350.277 133.189 350.512C133.322 350.742 133.51 350.92 133.752 351.045C133.998 351.166 134.289 351.227 134.625 351.227C134.961 351.227 135.25 351.166 135.492 351.045C135.734 350.92 135.92 350.742 136.049 350.512C136.182 350.277 136.248 349.996 136.248 349.668ZM137.139 345.689C137.139 346.104 137.029 346.477 136.811 346.809C136.592 347.141 136.293 347.402 135.914 347.594C135.535 347.785 135.105 347.881 134.625 347.881C134.137 347.881 133.701 347.785 133.318 347.594C132.939 347.402 132.643 347.141 132.428 346.809C132.213 346.477 132.105 346.104 132.105 345.689C132.105 345.193 132.213 344.771 132.428 344.424C132.646 344.076 132.945 343.811 133.324 343.627C133.703 343.443 134.135 343.352 134.619 343.352C135.107 343.352 135.541 343.443 135.92 343.627C136.299 343.811 136.596 344.076 136.811 344.424C137.029 344.771 137.139 345.193 137.139 345.689ZM136.055 345.707C136.055 345.422 135.994 345.17 135.873 344.951C135.752 344.732 135.584 344.561 135.369 344.436C135.154 344.307 134.904 344.242 134.619 344.242C134.334 344.242 134.084 344.303 133.869 344.424C133.658 344.541 133.492 344.709 133.371 344.928C133.254 345.146 133.195 345.406 133.195 345.707C133.195 346 133.254 346.256 133.371 346.475C133.492 346.693 133.66 346.863 133.875 346.984C134.09 347.105 134.34 347.166 134.625 347.166C134.91 347.166 135.158 347.105 135.369 346.984C135.584 346.863 135.752 346.693 135.873 346.475C135.994 346.256 136.055 346 136.055 345.707Z" fill="#333333"/>
<path d="M201.499 351.109V352H195.915V351.221L198.71 348.109C199.053 347.727 199.319 347.402 199.507 347.137C199.698 346.867 199.831 346.627 199.905 346.416C199.983 346.201 200.022 345.982 200.022 345.76C200.022 345.479 199.964 345.225 199.846 344.998C199.733 344.768 199.565 344.584 199.343 344.447C199.12 344.311 198.85 344.242 198.534 344.242C198.155 344.242 197.839 344.316 197.585 344.465C197.335 344.609 197.147 344.812 197.022 345.074C196.897 345.336 196.835 345.637 196.835 345.977H195.751C195.751 345.496 195.856 345.057 196.067 344.658C196.278 344.26 196.591 343.943 197.005 343.709C197.419 343.471 197.928 343.352 198.534 343.352C199.073 343.352 199.534 343.447 199.917 343.639C200.3 343.826 200.593 344.092 200.796 344.436C201.003 344.775 201.106 345.174 201.106 345.631C201.106 345.881 201.063 346.135 200.977 346.393C200.895 346.646 200.78 346.9 200.632 347.154C200.487 347.408 200.317 347.658 200.122 347.904C199.93 348.15 199.725 348.393 199.507 348.631L197.221 351.109H201.499ZM208.014 347.055V348.355C208.014 349.055 207.952 349.645 207.827 350.125C207.702 350.605 207.522 350.992 207.288 351.285C207.053 351.578 206.77 351.791 206.438 351.924C206.11 352.053 205.739 352.117 205.325 352.117C204.997 352.117 204.694 352.076 204.417 351.994C204.139 351.912 203.889 351.781 203.667 351.602C203.448 351.418 203.26 351.18 203.104 350.887C202.948 350.594 202.829 350.238 202.747 349.82C202.665 349.402 202.624 348.914 202.624 348.355V347.055C202.624 346.355 202.686 345.77 202.811 345.297C202.94 344.824 203.122 344.445 203.356 344.16C203.591 343.871 203.872 343.664 204.2 343.539C204.532 343.414 204.903 343.352 205.313 343.352C205.645 343.352 205.95 343.393 206.227 343.475C206.509 343.553 206.759 343.68 206.977 343.855C207.196 344.027 207.382 344.258 207.534 344.547C207.69 344.832 207.809 345.182 207.891 345.596C207.973 346.01 208.014 346.496 208.014 347.055ZM206.925 348.531V346.873C206.925 346.49 206.901 346.154 206.854 345.865C206.811 345.572 206.747 345.322 206.661 345.115C206.575 344.908 206.466 344.74 206.333 344.611C206.204 344.482 206.053 344.389 205.882 344.33C205.714 344.268 205.524 344.236 205.313 344.236C205.055 344.236 204.827 344.285 204.628 344.383C204.428 344.477 204.26 344.627 204.124 344.834C203.991 345.041 203.889 345.312 203.819 345.648C203.749 345.984 203.714 346.393 203.714 346.873V348.531C203.714 348.914 203.735 349.252 203.778 349.545C203.825 349.838 203.893 350.092 203.983 350.307C204.073 350.518 204.182 350.691 204.311 350.828C204.44 350.965 204.589 351.066 204.757 351.133C204.928 351.195 205.118 351.227 205.325 351.227C205.591 351.227 205.823 351.176 206.022 351.074C206.221 350.973 206.387 350.814 206.52 350.6C206.657 350.381 206.759 350.102 206.825 349.762C206.891 349.418 206.925 349.008 206.925 348.531ZM212.971 343.422V352H211.887V344.775L209.702 345.572V344.594L212.802 343.422H212.971ZM217.237 351.092H217.348C217.973 351.092 218.481 351.004 218.872 350.828C219.262 350.652 219.563 350.416 219.774 350.119C219.985 349.822 220.13 349.488 220.208 349.117C220.286 348.742 220.325 348.357 220.325 347.963V346.656C220.325 346.27 220.28 345.926 220.19 345.625C220.104 345.324 219.983 345.072 219.827 344.869C219.675 344.666 219.501 344.512 219.305 344.406C219.11 344.301 218.903 344.248 218.684 344.248C218.434 344.248 218.21 344.299 218.01 344.4C217.815 344.498 217.649 344.637 217.512 344.816C217.38 344.996 217.278 345.207 217.208 345.449C217.137 345.691 217.102 345.955 217.102 346.24C217.102 346.494 217.134 346.74 217.196 346.979C217.259 347.217 217.354 347.432 217.483 347.623C217.612 347.814 217.772 347.967 217.964 348.08C218.159 348.189 218.387 348.244 218.649 348.244C218.891 348.244 219.118 348.197 219.329 348.104C219.544 348.006 219.733 347.875 219.897 347.711C220.065 347.543 220.198 347.354 220.296 347.143C220.397 346.932 220.456 346.711 220.471 346.48H220.987C220.987 346.805 220.923 347.125 220.794 347.441C220.669 347.754 220.493 348.039 220.266 348.297C220.04 348.555 219.774 348.762 219.469 348.918C219.165 349.07 218.833 349.146 218.473 349.146C218.052 349.146 217.686 349.064 217.378 348.9C217.069 348.736 216.815 348.518 216.616 348.244C216.421 347.971 216.274 347.666 216.177 347.33C216.083 346.99 216.036 346.646 216.036 346.299C216.036 345.893 216.093 345.512 216.206 345.156C216.319 344.801 216.487 344.488 216.71 344.219C216.932 343.945 217.208 343.732 217.536 343.58C217.868 343.428 218.251 343.352 218.684 343.352C219.173 343.352 219.589 343.449 219.932 343.645C220.276 343.84 220.555 344.102 220.77 344.43C220.989 344.758 221.149 345.127 221.251 345.537C221.352 345.947 221.403 346.369 221.403 346.803V347.195C221.403 347.637 221.374 348.086 221.315 348.543C221.26 348.996 221.153 349.43 220.993 349.844C220.837 350.258 220.608 350.629 220.307 350.957C220.007 351.281 219.614 351.539 219.13 351.73C218.649 351.918 218.055 352.012 217.348 352.012H217.237V351.092Z" fill="#333333"/>
<path d="M285.699 351.109V352H280.115V351.221L282.91 348.109C283.253 347.727 283.519 347.402 283.707 347.137C283.898 346.867 284.031 346.627 284.105 346.416C284.183 346.201 284.222 345.982 284.222 345.76C284.222 345.479 284.164 345.225 284.046 344.998C283.933 344.768 283.765 344.584 283.542 344.447C283.32 344.311 283.05 344.242 282.734 344.242C282.355 344.242 282.039 344.316 281.785 344.465C281.535 344.609 281.347 344.812 281.222 345.074C281.097 345.336 281.035 345.637 281.035 345.977H279.951C279.951 345.496 280.056 345.057 280.267 344.658C280.478 344.26 280.791 343.943 281.205 343.709C281.619 343.471 282.128 343.352 282.734 343.352C283.273 343.352 283.734 343.447 284.117 343.639C284.5 343.826 284.792 344.092 284.996 344.436C285.203 344.775 285.306 345.174 285.306 345.631C285.306 345.881 285.263 346.135 285.177 346.393C285.095 346.646 284.98 346.9 284.832 347.154C284.687 347.408 284.517 347.658 284.322 347.904C284.13 348.15 283.925 348.393 283.707 348.631L281.421 351.109H285.699ZM292.214 347.055V348.355C292.214 349.055 292.152 349.645 292.027 350.125C291.902 350.605 291.722 350.992 291.488 351.285C291.253 351.578 290.97 351.791 290.638 351.924C290.31 352.053 289.939 352.117 289.525 352.117C289.197 352.117 288.894 352.076 288.617 351.994C288.339 351.912 288.089 351.781 287.867 351.602C287.648 351.418 287.46 351.18 287.304 350.887C287.148 350.594 287.029 350.238 286.947 349.82C286.865 349.402 286.824 348.914 286.824 348.355V347.055C286.824 346.355 286.886 345.77 287.011 345.297C287.14 344.824 287.322 344.445 287.556 344.16C287.791 343.871 288.072 343.664 288.4 343.539C288.732 343.414 289.103 343.352 289.513 343.352C289.845 343.352 290.15 343.393 290.427 343.475C290.708 343.553 290.958 343.68 291.177 343.855C291.396 344.027 291.582 344.258 291.734 344.547C291.89 344.832 292.009 345.182 292.091 345.596C292.173 346.01 292.214 346.496 292.214 347.055ZM291.125 348.531V346.873C291.125 346.49 291.101 346.154 291.054 345.865C291.011 345.572 290.947 345.322 290.861 345.115C290.775 344.908 290.666 344.74 290.533 344.611C290.404 344.482 290.253 344.389 290.082 344.33C289.914 344.268 289.724 344.236 289.513 344.236C289.255 344.236 289.027 344.285 288.828 344.383C288.628 344.477 288.46 344.627 288.324 344.834C288.191 345.041 288.089 345.312 288.019 345.648C287.949 345.984 287.914 346.393 287.914 346.873V348.531C287.914 348.914 287.935 349.252 287.978 349.545C288.025 349.838 288.093 350.092 288.183 350.307C288.273 350.518 288.382 350.691 288.511 350.828C288.64 350.965 288.789 351.066 288.957 351.133C289.128 351.195 289.318 351.227 289.525 351.227C289.791 351.227 290.023 351.176 290.222 351.074C290.421 350.973 290.587 350.814 290.72 350.6C290.857 350.381 290.958 350.102 291.025 349.762C291.091 349.418 291.125 349.008 291.125 348.531ZM299.199 351.109V352H293.615V351.221L296.41 348.109C296.753 347.727 297.019 347.402 297.207 347.137C297.398 346.867 297.531 346.627 297.605 346.416C297.683 346.201 297.722 345.982 297.722 345.76C297.722 345.479 297.664 345.225 297.546 344.998C297.433 344.768 297.265 344.584 297.042 344.447C296.82 344.311 296.55 344.242 296.234 344.242C295.855 344.242 295.539 344.316 295.285 344.465C295.035 344.609 294.847 344.812 294.722 345.074C294.597 345.336 294.535 345.637 294.535 345.977H293.451C293.451 345.496 293.556 345.057 293.767 344.658C293.978 344.26 294.291 343.943 294.705 343.709C295.119 343.471 295.628 343.352 296.234 343.352C296.773 343.352 297.234 343.447 297.617 343.639C298 343.826 298.292 344.092 298.496 344.436C298.703 344.775 298.806 345.174 298.806 345.631C298.806 345.881 298.763 346.135 298.677 346.393C298.595 346.646 298.48 346.9 298.332 347.154C298.187 347.408 298.017 347.658 297.822 347.904C297.63 348.15 297.425 348.393 297.207 348.631L294.921 351.109H299.199ZM305.714 347.055V348.355C305.714 349.055 305.652 349.645 305.527 350.125C305.402 350.605 305.222 350.992 304.988 351.285C304.753 351.578 304.47 351.791 304.138 351.924C303.81 352.053 303.439 352.117 303.025 352.117C302.697 352.117 302.394 352.076 302.117 351.994C301.839 351.912 301.589 351.781 301.367 351.602C301.148 351.418 300.96 351.18 300.804 350.887C300.648 350.594 300.529 350.238 300.447 349.82C300.365 349.402 300.324 348.914 300.324 348.355V347.055C300.324 346.355 300.386 345.77 300.511 345.297C300.64 344.824 300.822 344.445 301.056 344.16C301.291 343.871 301.572 343.664 301.9 343.539C302.232 343.414 302.603 343.352 303.013 343.352C303.345 343.352 303.65 343.393 303.927 343.475C304.208 343.553 304.458 343.68 304.677 343.855C304.896 344.027 305.082 344.258 305.234 344.547C305.39 344.832 305.509 345.182 305.591 345.596C305.673 346.01 305.714 346.496 305.714 347.055ZM304.625 348.531V346.873C304.625 346.49 304.601 346.154 304.554 345.865C304.511 345.572 304.447 345.322 304.361 345.115C304.275 344.908 304.166 344.74 304.033 344.611C303.904 344.482 303.753 344.389 303.582 344.33C303.414 344.268 303.224 344.236 303.013 344.236C302.755 344.236 302.527 344.285 302.328 344.383C302.128 344.477 301.96 344.627 301.824 344.834C301.691 345.041 301.589 345.312 301.519 345.648C301.449 345.984 301.414 346.393 301.414 346.873V348.531C301.414 348.914 301.435 349.252 301.478 349.545C301.525 349.838 301.593 350.092 301.683 350.307C301.773 350.518 301.882 350.691 302.011 350.828C302.14 350.965 302.289 351.066 302.457 351.133C302.628 351.195 302.818 351.227 303.025 351.227C303.291 351.227 303.523 351.176 303.722 351.074C303.921 350.973 304.087 350.814 304.22 350.6C304.357 350.381 304.458 350.102 304.525 349.762C304.591 349.418 304.625 349.008 304.625 348.531Z" fill="#333333"/>
<path d="M369.899 351.109V352H364.315V351.221L367.11 348.109C367.454 347.727 367.719 347.402 367.907 347.137C368.098 346.867 368.231 346.627 368.305 346.416C368.383 346.201 368.422 345.982 368.422 345.76C368.422 345.479 368.364 345.225 368.247 344.998C368.133 344.768 367.965 344.584 367.743 344.447C367.52 344.311 367.25 344.242 366.934 344.242C366.555 344.242 366.239 344.316 365.985 344.465C365.735 344.609 365.547 344.812 365.422 345.074C365.297 345.336 365.235 345.637 365.235 345.977H364.151C364.151 345.496 364.256 345.057 364.467 344.658C364.678 344.26 364.991 343.943 365.405 343.709C365.819 343.471 366.329 343.352 366.934 343.352C367.473 343.352 367.934 343.447 368.317 343.639C368.7 343.826 368.993 344.092 369.196 344.436C369.403 344.775 369.506 345.174 369.506 345.631C369.506 345.881 369.463 346.135 369.377 346.393C369.295 346.646 369.18 346.9 369.032 347.154C368.887 347.408 368.717 347.658 368.522 347.904C368.331 348.15 368.125 348.393 367.907 348.631L365.622 351.109H369.899ZM376.415 347.055V348.355C376.415 349.055 376.352 349.645 376.227 350.125C376.102 350.605 375.922 350.992 375.688 351.285C375.454 351.578 375.17 351.791 374.838 351.924C374.51 352.053 374.139 352.117 373.725 352.117C373.397 352.117 373.094 352.076 372.817 351.994C372.54 351.912 372.29 351.781 372.067 351.602C371.848 351.418 371.661 351.18 371.504 350.887C371.348 350.594 371.229 350.238 371.147 349.82C371.065 349.402 371.024 348.914 371.024 348.355V347.055C371.024 346.355 371.086 345.77 371.211 345.297C371.34 344.824 371.522 344.445 371.756 344.16C371.991 343.871 372.272 343.664 372.6 343.539C372.932 343.414 373.303 343.352 373.713 343.352C374.045 343.352 374.35 343.393 374.627 343.475C374.909 343.553 375.159 343.68 375.377 343.855C375.596 344.027 375.782 344.258 375.934 344.547C376.09 344.832 376.209 345.182 376.292 345.596C376.374 346.01 376.415 346.496 376.415 347.055ZM375.325 348.531V346.873C375.325 346.49 375.301 346.154 375.254 345.865C375.211 345.572 375.147 345.322 375.061 345.115C374.975 344.908 374.866 344.74 374.733 344.611C374.604 344.482 374.454 344.389 374.282 344.33C374.114 344.268 373.924 344.236 373.713 344.236C373.456 344.236 373.227 344.285 373.028 344.383C372.829 344.477 372.661 344.627 372.524 344.834C372.391 345.041 372.29 345.312 372.219 345.648C372.149 345.984 372.114 346.393 372.114 346.873V348.531C372.114 348.914 372.135 349.252 372.178 349.545C372.225 349.838 372.293 350.092 372.383 350.307C372.473 350.518 372.583 350.691 372.711 350.828C372.84 350.965 372.989 351.066 373.157 351.133C373.329 351.195 373.518 351.227 373.725 351.227C373.991 351.227 374.223 351.176 374.422 351.074C374.622 350.973 374.788 350.814 374.92 350.6C375.057 350.381 375.159 350.102 375.225 349.762C375.292 349.418 375.325 349.008 375.325 348.531ZM383.399 351.109V352H377.815V351.221L380.61 348.109C380.954 347.727 381.219 347.402 381.407 347.137C381.598 346.867 381.731 346.627 381.805 346.416C381.883 346.201 381.922 345.982 381.922 345.76C381.922 345.479 381.864 345.225 381.747 344.998C381.633 344.768 381.465 344.584 381.243 344.447C381.02 344.311 380.75 344.242 380.434 344.242C380.055 344.242 379.739 344.316 379.485 344.465C379.235 344.609 379.047 344.812 378.922 345.074C378.797 345.336 378.735 345.637 378.735 345.977H377.651C377.651 345.496 377.756 345.057 377.967 344.658C378.178 344.26 378.491 343.943 378.905 343.709C379.319 343.471 379.829 343.352 380.434 343.352C380.973 343.352 381.434 343.447 381.817 343.639C382.2 343.826 382.493 344.092 382.696 344.436C382.903 344.775 383.006 345.174 383.006 345.631C383.006 345.881 382.963 346.135 382.877 346.393C382.795 346.646 382.68 346.9 382.532 347.154C382.387 347.408 382.217 347.658 382.022 347.904C381.831 348.15 381.625 348.393 381.407 348.631L379.122 351.109H383.399ZM388.122 343.422V352H387.038V344.775L384.852 345.572V344.594L387.952 343.422H388.122Z" fill="#333333"/>
<path d="M454.099 351.109V352H448.515V351.221L451.31 348.109C451.654 347.727 451.919 347.402 452.107 347.137C452.298 346.867 452.431 346.627 452.505 346.416C452.583 346.201 452.622 345.982 452.622 345.76C452.622 345.479 452.564 345.225 452.447 344.998C452.333 344.768 452.165 344.584 451.943 344.447C451.72 344.311 451.45 344.242 451.134 344.242C450.755 344.242 450.439 344.316 450.185 344.465C449.935 344.609 449.747 344.812 449.622 345.074C449.497 345.336 449.435 345.637 449.435 345.977H448.351C448.351 345.496 448.456 345.057 448.667 344.658C448.878 344.26 449.191 343.943 449.605 343.709C450.019 343.471 450.529 343.352 451.134 343.352C451.673 343.352 452.134 343.447 452.517 343.639C452.9 343.826 453.193 344.092 453.396 344.436C453.603 344.775 453.706 345.174 453.706 345.631C453.706 345.881 453.663 346.135 453.577 346.393C453.495 346.646 453.38 346.9 453.232 347.154C453.087 347.408 452.917 347.658 452.722 347.904C452.531 348.15 452.325 348.393 452.107 348.631L449.822 351.109H454.099ZM460.615 347.055V348.355C460.615 349.055 460.552 349.645 460.427 350.125C460.302 350.605 460.122 350.992 459.888 351.285C459.654 351.578 459.37 351.791 459.038 351.924C458.71 352.053 458.339 352.117 457.925 352.117C457.597 352.117 457.294 352.076 457.017 351.994C456.74 351.912 456.49 351.781 456.267 351.602C456.048 351.418 455.861 351.18 455.704 350.887C455.548 350.594 455.429 350.238 455.347 349.82C455.265 349.402 455.224 348.914 455.224 348.355V347.055C455.224 346.355 455.286 345.77 455.411 345.297C455.54 344.824 455.722 344.445 455.956 344.16C456.191 343.871 456.472 343.664 456.8 343.539C457.132 343.414 457.503 343.352 457.913 343.352C458.245 343.352 458.55 343.393 458.827 343.475C459.109 343.553 459.359 343.68 459.577 343.855C459.796 344.027 459.982 344.258 460.134 344.547C460.29 344.832 460.409 345.182 460.491 345.596C460.573 346.01 460.615 346.496 460.615 347.055ZM459.525 348.531V346.873C459.525 346.49 459.501 346.154 459.454 345.865C459.411 345.572 459.347 345.322 459.261 345.115C459.175 344.908 459.066 344.74 458.933 344.611C458.804 344.482 458.654 344.389 458.482 344.33C458.314 344.268 458.124 344.236 457.913 344.236C457.656 344.236 457.427 344.285 457.228 344.383C457.029 344.477 456.861 344.627 456.724 344.834C456.591 345.041 456.49 345.312 456.419 345.648C456.349 345.984 456.314 346.393 456.314 346.873V348.531C456.314 348.914 456.335 349.252 456.378 349.545C456.425 349.838 456.493 350.092 456.583 350.307C456.673 350.518 456.782 350.691 456.911 350.828C457.04 350.965 457.189 351.066 457.357 351.133C457.529 351.195 457.718 351.227 457.925 351.227C458.191 351.227 458.423 351.176 458.622 351.074C458.822 350.973 458.988 350.814 459.12 350.6C459.257 350.381 459.359 350.102 459.425 349.762C459.491 349.418 459.525 349.008 459.525 348.531ZM467.599 351.109V352H462.015V351.221L464.81 348.109C465.154 347.727 465.419 347.402 465.607 347.137C465.798 346.867 465.931 346.627 466.005 346.416C466.083 346.201 466.122 345.982 466.122 345.76C466.122 345.479 466.064 345.225 465.947 344.998C465.833 344.768 465.665 344.584 465.443 344.447C465.22 344.311 464.95 344.242 464.634 344.242C464.255 344.242 463.939 344.316 463.685 344.465C463.435 344.609 463.247 344.812 463.122 345.074C462.997 345.336 462.935 345.637 462.935 345.977H461.851C461.851 345.496 461.956 345.057 462.167 344.658C462.378 344.26 462.691 343.943 463.105 343.709C463.519 343.471 464.029 343.352 464.634 343.352C465.173 343.352 465.634 343.447 466.017 343.639C466.4 343.826 466.693 344.092 466.896 344.436C467.103 344.775 467.206 345.174 467.206 345.631C467.206 345.881 467.163 346.135 467.077 346.393C466.995 346.646 466.88 346.9 466.732 347.154C466.587 347.408 466.417 347.658 466.222 347.904C466.031 348.15 465.825 348.393 465.607 348.631L463.322 351.109H467.599ZM474.349 351.109V352H468.765V351.221L471.56 348.109C471.904 347.727 472.169 347.402 472.357 347.137C472.548 346.867 472.681 346.627 472.755 346.416C472.833 346.201 472.872 345.982 472.872 345.76C472.872 345.479 472.814 345.225 472.697 344.998C472.583 344.768 472.415 344.584 472.193 344.447C471.97 344.311 471.7 344.242 471.384 344.242C471.005 344.242 470.689 344.316 470.435 344.465C470.185 344.609 469.997 344.812 469.872 345.074C469.747 345.336 469.685 345.637 469.685 345.977H468.601C468.601 345.496 468.706 345.057 468.917 344.658C469.128 344.26 469.441 343.943 469.855 343.709C470.269 343.471 470.779 343.352 471.384 343.352C471.923 343.352 472.384 343.447 472.767 343.639C473.15 343.826 473.443 344.092 473.646 344.436C473.853 344.775 473.956 345.174 473.956 345.631C473.956 345.881 473.913 346.135 473.827 346.393C473.745 346.646 473.63 346.9 473.482 347.154C473.337 347.408 473.167 347.658 472.972 347.904C472.781 348.15 472.575 348.393 472.357 348.631L470.072 351.109H474.349Z" fill="#333333"/>
<path d="M538.299 351.109V352H532.715V351.221L535.51 348.109C535.854 347.727 536.119 347.402 536.307 347.137C536.498 346.867 536.631 346.627 536.705 346.416C536.783 346.201 536.822 345.982 536.822 345.76C536.822 345.479 536.764 345.225 536.646 344.998C536.533 344.768 536.365 344.584 536.143 344.447C535.92 344.311 535.65 344.242 535.334 344.242C534.955 344.242 534.639 344.316 534.385 344.465C534.135 344.609 533.947 344.812 533.822 345.074C533.697 345.336 533.635 345.637 533.635 345.977H532.551C532.551 345.496 532.656 345.057 532.867 344.658C533.078 344.26 533.391 343.943 533.805 343.709C534.219 343.471 534.729 343.352 535.334 343.352C535.873 343.352 536.334 343.447 536.717 343.639C537.1 343.826 537.393 344.092 537.596 344.436C537.803 344.775 537.906 345.174 537.906 345.631C537.906 345.881 537.863 346.135 537.777 346.393C537.695 346.646 537.58 346.9 537.432 347.154C537.287 347.408 537.117 347.658 536.922 347.904C536.73 348.15 536.525 348.393 536.307 348.631L534.021 351.109H538.299ZM544.814 347.055V348.355C544.814 349.055 544.752 349.645 544.627 350.125C544.502 350.605 544.322 350.992 544.088 351.285C543.854 351.578 543.57 351.791 543.238 351.924C542.91 352.053 542.539 352.117 542.125 352.117C541.797 352.117 541.494 352.076 541.217 351.994C540.939 351.912 540.689 351.781 540.467 351.602C540.248 351.418 540.061 351.18 539.904 350.887C539.748 350.594 539.629 350.238 539.547 349.82C539.465 349.402 539.424 348.914 539.424 348.355V347.055C539.424 346.355 539.486 345.77 539.611 345.297C539.74 344.824 539.922 344.445 540.156 344.16C540.391 343.871 540.672 343.664 541 343.539C541.332 343.414 541.703 343.352 542.113 343.352C542.445 343.352 542.75 343.393 543.027 343.475C543.309 343.553 543.559 343.68 543.777 343.855C543.996 344.027 544.182 344.258 544.334 344.547C544.49 344.832 544.609 345.182 544.691 345.596C544.773 346.01 544.814 346.496 544.814 347.055ZM543.725 348.531V346.873C543.725 346.49 543.701 346.154 543.654 345.865C543.611 345.572 543.547 345.322 543.461 345.115C543.375 344.908 543.266 344.74 543.133 344.611C543.004 344.482 542.854 344.389 542.682 344.33C542.514 344.268 542.324 344.236 542.113 344.236C541.855 344.236 541.627 344.285 541.428 344.383C541.229 344.477 541.061 344.627 540.924 344.834C540.791 345.041 540.689 345.312 540.619 345.648C540.549 345.984 540.514 346.393 540.514 346.873V348.531C540.514 348.914 540.535 349.252 540.578 349.545C540.625 349.838 540.693 350.092 540.783 350.307C540.873 350.518 540.982 350.691 541.111 350.828C541.24 350.965 541.389 351.066 541.557 351.133C541.729 351.195 541.918 351.227 542.125 351.227C542.391 351.227 542.623 351.176 542.822 351.074C543.021 350.973 543.188 350.814 543.32 350.6C543.457 350.381 543.559 350.102 543.625 349.762C543.691 349.418 543.725 349.008 543.725 348.531ZM551.799 351.109V352H546.215V351.221L549.01 348.109C549.354 347.727 549.619 347.402 549.807 347.137C549.998 346.867 550.131 346.627 550.205 346.416C550.283 346.201 550.322 345.982 550.322 345.76C550.322 345.479 550.264 345.225 550.146 344.998C550.033 344.768 549.865 344.584 549.643 344.447C549.42 344.311 549.15 344.242 548.834 344.242C548.455 344.242 548.139 344.316 547.885 344.465C547.635 344.609 547.447 344.812 547.322 345.074C547.197 345.336 547.135 345.637 547.135 345.977H546.051C546.051 345.496 546.156 345.057 546.367 344.658C546.578 344.26 546.891 343.943 547.305 343.709C547.719 343.471 548.229 343.352 548.834 343.352C549.373 343.352 549.834 343.447 550.217 343.639C550.6 343.826 550.893 344.092 551.096 344.436C551.303 344.775 551.406 345.174 551.406 345.631C551.406 345.881 551.363 346.135 551.277 346.393C551.195 346.646 551.08 346.9 550.932 347.154C550.787 347.408 550.617 347.658 550.422 347.904C550.23 348.15 550.025 348.393 549.807 348.631L547.521 351.109H551.799ZM554.541 347.201H555.314C555.693 347.201 556.006 347.139 556.252 347.014C556.502 346.885 556.688 346.711 556.809 346.492C556.934 346.27 556.996 346.02 556.996 345.742C556.996 345.414 556.941 345.139 556.832 344.916C556.723 344.693 556.559 344.525 556.34 344.412C556.121 344.299 555.844 344.242 555.508 344.242C555.203 344.242 554.934 344.303 554.699 344.424C554.469 344.541 554.287 344.709 554.154 344.928C554.025 345.146 553.961 345.404 553.961 345.701H552.877C552.877 345.268 552.986 344.873 553.205 344.518C553.424 344.162 553.73 343.879 554.125 343.668C554.523 343.457 554.984 343.352 555.508 343.352C556.023 343.352 556.475 343.443 556.861 343.627C557.248 343.807 557.549 344.076 557.764 344.436C557.979 344.791 558.086 345.234 558.086 345.766C558.086 345.98 558.035 346.211 557.934 346.457C557.836 346.699 557.682 346.926 557.471 347.137C557.264 347.348 556.994 347.521 556.662 347.658C556.33 347.791 555.932 347.857 555.467 347.857H554.541V347.201ZM554.541 348.092V347.441H555.467C556.01 347.441 556.459 347.506 556.814 347.635C557.17 347.764 557.449 347.936 557.652 348.15C557.859 348.365 558.004 348.602 558.086 348.859C558.172 349.113 558.215 349.367 558.215 349.621C558.215 350.02 558.146 350.373 558.01 350.682C557.877 350.99 557.688 351.252 557.441 351.467C557.199 351.682 556.914 351.844 556.586 351.953C556.258 352.062 555.9 352.117 555.514 352.117C555.143 352.117 554.793 352.064 554.465 351.959C554.141 351.854 553.854 351.701 553.604 351.502C553.354 351.299 553.158 351.051 553.018 350.758C552.877 350.461 552.807 350.123 552.807 349.744H553.891C553.891 350.041 553.955 350.301 554.084 350.523C554.217 350.746 554.404 350.92 554.646 351.045C554.893 351.166 555.182 351.227 555.514 351.227C555.846 351.227 556.131 351.17 556.369 351.057C556.611 350.939 556.797 350.764 556.926 350.529C557.059 350.295 557.125 350 557.125 349.645C557.125 349.289 557.051 348.998 556.902 348.771C556.754 348.541 556.543 348.371 556.27 348.262C556 348.148 555.682 348.092 555.314 348.092H554.541Z" fill="#333333"/>
<path d="M49.9492 23.0859V24.873H49.0703V23.0859H49.9492ZM49.8438 32.6543V34.2188H48.9707V32.6543H49.8438ZM51.0156 30.8027C51.0156 30.5684 50.9629 30.3574 50.8574 30.1699C50.752 29.9824 50.5781 29.8105 50.3359 29.6543C50.0938 29.498 49.7695 29.3535 49.3633 29.2207C48.8711 29.0684 48.4453 28.8828 48.0859 28.6641C47.7305 28.4453 47.4551 28.1738 47.2598 27.8496C47.0684 27.5254 46.9727 27.1328 46.9727 26.6719C46.9727 26.1914 47.0762 25.7773 47.2832 25.4297C47.4902 25.082 47.7832 24.8145 48.1621 24.627C48.541 24.4395 48.9863 24.3457 49.498 24.3457C49.8965 24.3457 50.252 24.4062 50.5645 24.5273C50.877 24.6445 51.1406 24.8203 51.3555 25.0547C51.5742 25.2891 51.7402 25.5762 51.8535 25.916C51.9707 26.2559 52.0293 26.6484 52.0293 27.0938H50.9512C50.9512 26.832 50.9199 26.5918 50.8574 26.373C50.7949 26.1543 50.7012 25.9648 50.5762 25.8047C50.4512 25.6406 50.2988 25.5156 50.1191 25.4297C49.9395 25.3398 49.7324 25.2949 49.498 25.2949C49.1699 25.2949 48.8984 25.3516 48.6836 25.4648C48.4727 25.5781 48.3164 25.7383 48.2148 25.9453C48.1133 26.1484 48.0625 26.3848 48.0625 26.6543C48.0625 26.9043 48.1133 27.123 48.2148 27.3105C48.3164 27.498 48.4883 27.668 48.7305 27.8203C48.9766 27.9688 49.3145 28.1152 49.7441 28.2598C50.248 28.4199 50.6758 28.6094 51.0273 28.8281C51.3789 29.043 51.6465 29.3086 51.8301 29.625C52.0137 29.9375 52.1055 30.3262 52.1055 30.791C52.1055 31.2949 51.9922 31.7207 51.7656 32.0684C51.5391 32.4121 51.2207 32.6738 50.8105 32.8535C50.4004 33.0332 49.9199 33.123 49.3691 33.123C49.0371 33.123 48.709 33.0781 48.3848 32.9883C48.0605 32.8984 47.7676 32.752 47.5059 32.5488C47.2441 32.3418 47.0352 32.0703 46.8789 31.7344C46.7227 31.3945 46.6445 30.9785 46.6445 30.4863H47.7344C47.7344 30.8184 47.7812 31.0938 47.875 31.3125C47.9727 31.5273 48.1016 31.6992 48.2617 31.8281C48.4219 31.9531 48.5977 32.043 48.7891 32.0977C48.9844 32.1484 49.1777 32.1738 49.3691 32.1738C49.7207 32.1738 50.0176 32.1191 50.2598 32.0098C50.5059 31.8965 50.6934 31.7363 50.8223 31.5293C50.9512 31.3223 51.0156 31.0801 51.0156 30.8027ZM58.9727 24.4688V25.0781L55.4395 33H54.2969L57.8242 25.3594H53.207V24.4688H58.9727ZM60.8477 24.4688H61.9434L64.7383 31.4238L67.5273 24.4688H68.6289L65.1602 33H64.3047L60.8477 24.4688ZM60.4902 24.4688H61.457L61.6152 29.6719V33H60.4902V24.4688ZM68.0137 24.4688H68.9805V33H67.8555V29.6719L68.0137 24.4688Z" fill="#333333"/>
<path d="M49.9492 66.5859V68.373H49.0703V66.5859H49.9492ZM49.8438 76.1543V77.7188H48.9707V76.1543H49.8438ZM51.0156 74.3027C51.0156 74.0684 50.9629 73.8574 50.8574 73.6699C50.752 73.4824 50.5781 73.3105 50.3359 73.1543C50.0938 72.998 49.7695 72.8535 49.3633 72.7207C48.8711 72.5684 48.4453 72.3828 48.0859 72.1641C47.7305 71.9453 47.4551 71.6738 47.2598 71.3496C47.0684 71.0254 46.9727 70.6328 46.9727 70.1719C46.9727 69.6914 47.0762 69.2773 47.2832 68.9297C47.4902 68.582 47.7832 68.3145 48.1621 68.127C48.541 67.9395 48.9863 67.8457 49.498 67.8457C49.8965 67.8457 50.252 67.9062 50.5645 68.0273C50.877 68.1445 51.1406 68.3203 51.3555 68.5547C51.5742 68.7891 51.7402 69.0762 51.8535 69.416C51.9707 69.7559 52.0293 70.1484 52.0293 70.5938H50.9512C50.9512 70.332 50.9199 70.0918 50.8574 69.873C50.7949 69.6543 50.7012 69.4648 50.5762 69.3047C50.4512 69.1406 50.2988 69.0156 50.1191 68.9297C49.9395 68.8398 49.7324 68.7949 49.498 68.7949C49.1699 68.7949 48.8984 68.8516 48.6836 68.9648C48.4727 69.0781 48.3164 69.2383 48.2148 69.4453C48.1133 69.6484 48.0625 69.8848 48.0625 70.1543C48.0625 70.4043 48.1133 70.623 48.2148 70.8105C48.3164 70.998 48.4883 71.168 48.7305 71.3203C48.9766 71.4688 49.3145 71.6152 49.7441 71.7598C50.248 71.9199 50.6758 72.1094 51.0273 72.3281C51.3789 72.543 51.6465 72.8086 51.8301 73.125C52.0137 73.4375 52.1055 73.8262 52.1055 74.291C52.1055 74.7949 51.9922 75.2207 51.7656 75.5684C51.5391 75.9121 51.2207 76.1738 50.8105 76.3535C50.4004 76.5332 49.9199 76.623 49.3691 76.623C49.0371 76.623 48.709 76.5781 48.3848 76.4883C48.0605 76.3984 47.7676 76.252 47.5059 76.0488C47.2441 75.8418 47.0352 75.5703 46.8789 75.2344C46.7227 74.8945 46.6445 74.4785 46.6445 73.9863H47.7344C47.7344 74.3184 47.7812 74.5938 47.875 74.8125C47.9727 75.0273 48.1016 75.1992 48.2617 75.3281C48.4219 75.4531 48.5977 75.543 48.7891 75.5977C48.9844 75.6484 49.1777 75.6738 49.3691 75.6738C49.7207 75.6738 50.0176 75.6191 50.2598 75.5098C50.5059 75.3965 50.6934 75.2363 50.8223 75.0293C50.9512 74.8223 51.0156 74.5801 51.0156 74.3027ZM57.6191 67.957H57.7129V68.877H57.6191C57.0449 68.877 56.5645 68.9707 56.1777 69.1582C55.791 69.3418 55.4844 69.5898 55.2578 69.9023C55.0312 70.2109 54.8672 70.5586 54.7656 70.9453C54.668 71.332 54.6191 71.7246 54.6191 72.123V73.377C54.6191 73.7559 54.6641 74.0918 54.7539 74.3848C54.8438 74.6738 54.9668 74.918 55.123 75.1172C55.2793 75.3164 55.4551 75.4668 55.6504 75.5684C55.8496 75.6699 56.0566 75.7207 56.2715 75.7207C56.5215 75.7207 56.7441 75.6738 56.9395 75.5801C57.1348 75.4824 57.2988 75.3477 57.4316 75.1758C57.5684 75 57.6719 74.793 57.7422 74.5547C57.8125 74.3164 57.8477 74.0547 57.8477 73.7695C57.8477 73.5156 57.8164 73.2715 57.7539 73.0371C57.6914 72.7988 57.5957 72.5879 57.4668 72.4043C57.3379 72.2168 57.1758 72.0703 56.9805 71.9648C56.7891 71.8555 56.5605 71.8008 56.2949 71.8008C55.9941 71.8008 55.7129 71.875 55.4512 72.0234C55.1934 72.168 54.9805 72.3594 54.8125 72.5977C54.6484 72.832 54.5547 73.0879 54.5312 73.3652L53.957 73.3594C54.0117 72.9219 54.1133 72.5488 54.2617 72.2402C54.4141 71.9277 54.6016 71.6738 54.8242 71.4785C55.0508 71.2793 55.3027 71.1348 55.5801 71.0449C55.8613 70.9512 56.1582 70.9043 56.4707 70.9043C56.8965 70.9043 57.2637 70.9844 57.5723 71.1445C57.8809 71.3047 58.1348 71.5195 58.334 71.7891C58.5332 72.0547 58.6797 72.3555 58.7734 72.6914C58.8711 73.0234 58.9199 73.3652 58.9199 73.7168C58.9199 74.1191 58.8633 74.4961 58.75 74.8477C58.6367 75.1992 58.4668 75.5078 58.2402 75.7734C58.0176 76.0391 57.7422 76.2461 57.4141 76.3945C57.0859 76.543 56.7051 76.6172 56.2715 76.6172C55.8105 76.6172 55.4082 76.5234 55.0645 76.3359C54.7207 76.1445 54.4355 75.8906 54.209 75.5742C53.9824 75.2578 53.8125 74.9062 53.6992 74.5195C53.5859 74.1328 53.5293 73.7402 53.5293 73.3418V72.832C53.5293 72.2305 53.5898 71.6406 53.7109 71.0625C53.832 70.4844 54.041 69.9609 54.3379 69.4922C54.6387 69.0234 55.0547 68.6504 55.5859 68.373C56.1172 68.0957 56.7949 67.957 57.6191 67.957ZM60.8477 67.9688H61.9434L64.7383 74.9238L67.5273 67.9688H68.6289L65.1602 76.5H64.3047L60.8477 67.9688ZM60.4902 67.9688H61.457L61.6152 73.1719V76.5H60.4902V67.9688ZM68.0137 67.9688H68.9805V76.5H67.8555V73.1719L68.0137 67.9688Z" fill="#333333"/>
<path d="M49.9492 110.086V111.873H49.0703V110.086H49.9492ZM49.8438 119.654V121.219H48.9707V119.654H49.8438ZM51.0156 117.803C51.0156 117.568 50.9629 117.357 50.8574 117.17C50.752 116.982 50.5781 116.811 50.3359 116.654C50.0938 116.498 49.7695 116.354 49.3633 116.221C48.8711 116.068 48.4453 115.883 48.0859 115.664C47.7305 115.445 47.4551 115.174 47.2598 114.85C47.0684 114.525 46.9727 114.133 46.9727 113.672C46.9727 113.191 47.0762 112.777 47.2832 112.43C47.4902 112.082 47.7832 111.814 48.1621 111.627C48.541 111.439 48.9863 111.346 49.498 111.346C49.8965 111.346 50.252 111.406 50.5645 111.527C50.877 111.645 51.1406 111.82 51.3555 112.055C51.5742 112.289 51.7402 112.576 51.8535 112.916C51.9707 113.256 52.0293 113.648 52.0293 114.094H50.9512C50.9512 113.832 50.9199 113.592 50.8574 113.373C50.7949 113.154 50.7012 112.965 50.5762 112.805C50.4512 112.641 50.2988 112.516 50.1191 112.43C49.9395 112.34 49.7324 112.295 49.498 112.295C49.1699 112.295 48.8984 112.352 48.6836 112.465C48.4727 112.578 48.3164 112.738 48.2148 112.945C48.1133 113.148 48.0625 113.385 48.0625 113.654C48.0625 113.904 48.1133 114.123 48.2148 114.311C48.3164 114.498 48.4883 114.668 48.7305 114.82C48.9766 114.969 49.3145 115.115 49.7441 115.26C50.248 115.42 50.6758 115.609 51.0273 115.828C51.3789 116.043 51.6465 116.309 51.8301 116.625C52.0137 116.938 52.1055 117.326 52.1055 117.791C52.1055 118.295 51.9922 118.721 51.7656 119.068C51.5391 119.412 51.2207 119.674 50.8105 119.854C50.4004 120.033 49.9199 120.123 49.3691 120.123C49.0371 120.123 48.709 120.078 48.3848 119.988C48.0605 119.898 47.7676 119.752 47.5059 119.549C47.2441 119.342 47.0352 119.07 46.8789 118.734C46.7227 118.395 46.6445 117.979 46.6445 117.486H47.7344C47.7344 117.818 47.7812 118.094 47.875 118.312C47.9727 118.527 48.1016 118.699 48.2617 118.828C48.4219 118.953 48.5977 119.043 48.7891 119.098C48.9844 119.148 49.1777 119.174 49.3691 119.174C49.7207 119.174 50.0176 119.119 50.2598 119.01C50.5059 118.896 50.6934 118.736 50.8223 118.529C50.9512 118.322 51.0156 118.08 51.0156 117.803ZM54.8301 115.939L53.9629 115.717L54.3906 111.469H58.7676V112.471H55.3105L55.0527 114.791C55.209 114.701 55.4062 114.617 55.6445 114.539C55.8867 114.461 56.1641 114.422 56.4766 114.422C56.8711 114.422 57.2246 114.49 57.5371 114.627C57.8496 114.76 58.1152 114.951 58.334 115.201C58.5566 115.451 58.7266 115.752 58.8438 116.104C58.9609 116.455 59.0195 116.848 59.0195 117.281C59.0195 117.691 58.9629 118.068 58.8496 118.412C58.7402 118.756 58.5742 119.057 58.3516 119.314C58.1289 119.568 57.8477 119.766 57.5078 119.906C57.1719 120.047 56.7754 120.117 56.3184 120.117C55.9746 120.117 55.6484 120.07 55.3398 119.977C55.0352 119.879 54.7617 119.732 54.5195 119.537C54.2812 119.338 54.0859 119.092 53.9336 118.799C53.7852 118.502 53.6914 118.154 53.6523 117.756H54.6836C54.7305 118.076 54.8242 118.346 54.9648 118.564C55.1055 118.783 55.2891 118.949 55.5156 119.062C55.7461 119.172 56.0137 119.227 56.3184 119.227C56.5762 119.227 56.8047 119.182 57.0039 119.092C57.2031 119.002 57.3711 118.873 57.5078 118.705C57.6445 118.537 57.748 118.334 57.8184 118.096C57.8926 117.857 57.9297 117.59 57.9297 117.293C57.9297 117.023 57.8926 116.773 57.8184 116.543C57.7441 116.312 57.6328 116.111 57.4844 115.939C57.3398 115.768 57.1621 115.635 56.9512 115.541C56.7402 115.443 56.498 115.395 56.2246 115.395C55.8613 115.395 55.5859 115.443 55.3984 115.541C55.2148 115.639 55.0254 115.771 54.8301 115.939ZM60.8477 111.469H61.9434L64.7383 118.424L67.5273 111.469H68.6289L65.1602 120H64.3047L60.8477 111.469ZM60.4902 111.469H61.457L61.6152 116.672V120H60.4902V111.469ZM68.0137 111.469H68.9805V120H67.8555V116.672L68.0137 111.469Z" fill="#333333"/>
<path d="M49.9492 153.586V155.373H49.0703V153.586H49.9492ZM49.8438 163.154V164.719H48.9707V163.154H49.8438ZM51.0156 161.303C51.0156 161.068 50.9629 160.857 50.8574 160.67C50.752 160.482 50.5781 160.311 50.3359 160.154C50.0938 159.998 49.7695 159.854 49.3633 159.721C48.8711 159.568 48.4453 159.383 48.0859 159.164C47.7305 158.945 47.4551 158.674 47.2598 158.35C47.0684 158.025 46.9727 157.633 46.9727 157.172C46.9727 156.691 47.0762 156.277 47.2832 155.93C47.4902 155.582 47.7832 155.314 48.1621 155.127C48.541 154.939 48.9863 154.846 49.498 154.846C49.8965 154.846 50.252 154.906 50.5645 155.027C50.877 155.145 51.1406 155.32 51.3555 155.555C51.5742 155.789 51.7402 156.076 51.8535 156.416C51.9707 156.756 52.0293 157.148 52.0293 157.594H50.9512C50.9512 157.332 50.9199 157.092 50.8574 156.873C50.7949 156.654 50.7012 156.465 50.5762 156.305C50.4512 156.141 50.2988 156.016 50.1191 155.93C49.9395 155.84 49.7324 155.795 49.498 155.795C49.1699 155.795 48.8984 155.852 48.6836 155.965C48.4727 156.078 48.3164 156.238 48.2148 156.445C48.1133 156.648 48.0625 156.885 48.0625 157.154C48.0625 157.404 48.1133 157.623 48.2148 157.811C48.3164 157.998 48.4883 158.168 48.7305 158.32C48.9766 158.469 49.3145 158.615 49.7441 158.76C50.248 158.92 50.6758 159.109 51.0273 159.328C51.3789 159.543 51.6465 159.809 51.8301 160.125C52.0137 160.438 52.1055 160.826 52.1055 161.291C52.1055 161.795 51.9922 162.221 51.7656 162.568C51.5391 162.912 51.2207 163.174 50.8105 163.354C50.4004 163.533 49.9199 163.623 49.3691 163.623C49.0371 163.623 48.709 163.578 48.3848 163.488C48.0605 163.398 47.7676 163.252 47.5059 163.049C47.2441 162.842 47.0352 162.57 46.8789 162.234C46.7227 161.895 46.6445 161.479 46.6445 160.986H47.7344C47.7344 161.318 47.7812 161.594 47.875 161.812C47.9727 162.027 48.1016 162.199 48.2617 162.328C48.4219 162.453 48.5977 162.543 48.7891 162.598C48.9844 162.648 49.1777 162.674 49.3691 162.674C49.7207 162.674 50.0176 162.619 50.2598 162.51C50.5059 162.396 50.6934 162.236 50.8223 162.029C50.9512 161.822 51.0156 161.58 51.0156 161.303ZM59.2246 160.629V161.52H53.0605V160.881L56.8809 154.969H57.7656L56.8164 156.68L54.291 160.629H59.2246ZM58.0352 154.969V163.5H56.9512V154.969H58.0352ZM60.8477 154.969H61.9434L64.7383 161.924L67.5273 154.969H68.6289L65.1602 163.5H64.3047L60.8477 154.969ZM60.4902 154.969H61.457L61.6152 160.172V163.5H60.4902V154.969ZM68.0137 154.969H68.9805V163.5H67.8555V160.172L68.0137 154.969Z" fill="#333333"/>
<path d="M49.9492 197.086V198.873H49.0703V197.086H49.9492ZM49.8438 206.654V208.219H48.9707V206.654H49.8438ZM51.0156 204.803C51.0156 204.568 50.9629 204.357 50.8574 204.17C50.752 203.982 50.5781 203.811 50.3359 203.654C50.0938 203.498 49.7695 203.354 49.3633 203.221C48.8711 203.068 48.4453 202.883 48.0859 202.664C47.7305 202.445 47.4551 202.174 47.2598 201.85C47.0684 201.525 46.9727 201.133 46.9727 200.672C46.9727 200.191 47.0762 199.777 47.2832 199.43C47.4902 199.082 47.7832 198.814 48.1621 198.627C48.541 198.439 48.9863 198.346 49.498 198.346C49.8965 198.346 50.252 198.406 50.5645 198.527C50.877 198.645 51.1406 198.82 51.3555 199.055C51.5742 199.289 51.7402 199.576 51.8535 199.916C51.9707 200.256 52.0293 200.648 52.0293 201.094H50.9512C50.9512 200.832 50.9199 200.592 50.8574 200.373C50.7949 200.154 50.7012 199.965 50.5762 199.805C50.4512 199.641 50.2988 199.516 50.1191 199.43C49.9395 199.34 49.7324 199.295 49.498 199.295C49.1699 199.295 48.8984 199.352 48.6836 199.465C48.4727 199.578 48.3164 199.738 48.2148 199.945C48.1133 200.148 48.0625 200.385 48.0625 200.654C48.0625 200.904 48.1133 201.123 48.2148 201.311C48.3164 201.498 48.4883 201.668 48.7305 201.82C48.9766 201.969 49.3145 202.115 49.7441 202.26C50.248 202.42 50.6758 202.609 51.0273 202.828C51.3789 203.043 51.6465 203.309 51.8301 203.625C52.0137 203.938 52.1055 204.326 52.1055 204.791C52.1055 205.295 51.9922 205.721 51.7656 206.068C51.5391 206.412 51.2207 206.674 50.8105 206.854C50.4004 207.033 49.9199 207.123 49.3691 207.123C49.0371 207.123 48.709 207.078 48.3848 206.988C48.0605 206.898 47.7676 206.752 47.5059 206.549C47.2441 206.342 47.0352 206.07 46.8789 205.734C46.7227 205.395 46.6445 204.979 46.6445 204.486H47.7344C47.7344 204.818 47.7812 205.094 47.875 205.312C47.9727 205.527 48.1016 205.699 48.2617 205.828C48.4219 205.953 48.5977 206.043 48.7891 206.098C48.9844 206.148 49.1777 206.174 49.3691 206.174C49.7207 206.174 50.0176 206.119 50.2598 206.01C50.5059 205.896 50.6934 205.736 50.8223 205.529C50.9512 205.322 51.0156 205.08 51.0156 204.803ZM55.041 202.201H55.8145C56.1934 202.201 56.5059 202.139 56.752 202.014C57.002 201.885 57.1875 201.711 57.3086 201.492C57.4336 201.27 57.4961 201.02 57.4961 200.742C57.4961 200.414 57.4414 200.139 57.332 199.916C57.2227 199.693 57.0586 199.525 56.8398 199.412C56.6211 199.299 56.3438 199.242 56.0078 199.242C55.7031 199.242 55.4336 199.303 55.1992 199.424C54.9688 199.541 54.7871 199.709 54.6543 199.928C54.5254 200.146 54.4609 200.404 54.4609 200.701H53.377C53.377 200.268 53.4863 199.873 53.7051 199.518C53.9238 199.162 54.2305 198.879 54.625 198.668C55.0234 198.457 55.4844 198.352 56.0078 198.352C56.5234 198.352 56.9746 198.443 57.3613 198.627C57.748 198.807 58.0488 199.076 58.2637 199.436C58.4785 199.791 58.5859 200.234 58.5859 200.766C58.5859 200.98 58.5352 201.211 58.4336 201.457C58.3359 201.699 58.1816 201.926 57.9707 202.137C57.7637 202.348 57.4941 202.521 57.1621 202.658C56.8301 202.791 56.4316 202.857 55.9668 202.857H55.041V202.201ZM55.041 203.092V202.441H55.9668C56.5098 202.441 56.959 202.506 57.3145 202.635C57.6699 202.764 57.9492 202.936 58.1523 203.15C58.3594 203.365 58.5039 203.602 58.5859 203.859C58.6719 204.113 58.7148 204.367 58.7148 204.621C58.7148 205.02 58.6465 205.373 58.5098 205.682C58.377 205.99 58.1875 206.252 57.9414 206.467C57.6992 206.682 57.4141 206.844 57.0859 206.953C56.7578 207.062 56.4004 207.117 56.0137 207.117C55.6426 207.117 55.293 207.064 54.9648 206.959C54.6406 206.854 54.3535 206.701 54.1035 206.502C53.8535 206.299 53.6582 206.051 53.5176 205.758C53.377 205.461 53.3066 205.123 53.3066 204.744H54.3906C54.3906 205.041 54.4551 205.301 54.584 205.523C54.7168 205.746 54.9043 205.92 55.1465 206.045C55.3926 206.166 55.6816 206.227 56.0137 206.227C56.3457 206.227 56.6309 206.17 56.8691 206.057C57.1113 205.939 57.2969 205.764 57.4258 205.529C57.5586 205.295 57.625 205 57.625 204.645C57.625 204.289 57.5508 203.998 57.4023 203.771C57.2539 203.541 57.043 203.371 56.7695 203.262C56.5 203.148 56.1816 203.092 55.8145 203.092H55.041ZM60.8477 198.469H61.9434L64.7383 205.424L67.5273 198.469H68.6289L65.1602 207H64.3047L60.8477 198.469ZM60.4902 198.469H61.457L61.6152 203.672V207H60.4902V198.469ZM68.0137 198.469H68.9805V207H67.8555V203.672L68.0137 198.469Z" fill="#333333"/>
<path d="M49.9492 240.586V242.373H49.0703V240.586H49.9492ZM49.8438 250.154V251.719H48.9707V250.154H49.8438ZM51.0156 248.303C51.0156 248.068 50.9629 247.857 50.8574 247.67C50.752 247.482 50.5781 247.311 50.3359 247.154C50.0938 246.998 49.7695 246.854 49.3633 246.721C48.8711 246.568 48.4453 246.383 48.0859 246.164C47.7305 245.945 47.4551 245.674 47.2598 245.35C47.0684 245.025 46.9727 244.633 46.9727 244.172C46.9727 243.691 47.0762 243.277 47.2832 242.93C47.4902 242.582 47.7832 242.314 48.1621 242.127C48.541 241.939 48.9863 241.846 49.498 241.846C49.8965 241.846 50.252 241.906 50.5645 242.027C50.877 242.145 51.1406 242.32 51.3555 242.555C51.5742 242.789 51.7402 243.076 51.8535 243.416C51.9707 243.756 52.0293 244.148 52.0293 244.594H50.9512C50.9512 244.332 50.9199 244.092 50.8574 243.873C50.7949 243.654 50.7012 243.465 50.5762 243.305C50.4512 243.141 50.2988 243.016 50.1191 242.93C49.9395 242.84 49.7324 242.795 49.498 242.795C49.1699 242.795 48.8984 242.852 48.6836 242.965C48.4727 243.078 48.3164 243.238 48.2148 243.445C48.1133 243.648 48.0625 243.885 48.0625 244.154C48.0625 244.404 48.1133 244.623 48.2148 244.811C48.3164 244.998 48.4883 245.168 48.7305 245.32C48.9766 245.469 49.3145 245.615 49.7441 245.76C50.248 245.92 50.6758 246.109 51.0273 246.328C51.3789 246.543 51.6465 246.809 51.8301 247.125C52.0137 247.438 52.1055 247.826 52.1055 248.291C52.1055 248.795 51.9922 249.221 51.7656 249.568C51.5391 249.912 51.2207 250.174 50.8105 250.354C50.4004 250.533 49.9199 250.623 49.3691 250.623C49.0371 250.623 48.709 250.578 48.3848 250.488C48.0605 250.398 47.7676 250.252 47.5059 250.049C47.2441 249.842 47.0352 249.57 46.8789 249.234C46.7227 248.895 46.6445 248.479 46.6445 247.986H47.7344C47.7344 248.318 47.7812 248.594 47.875 248.812C47.9727 249.027 48.1016 249.199 48.2617 249.328C48.4219 249.453 48.5977 249.543 48.7891 249.598C48.9844 249.648 49.1777 249.674 49.3691 249.674C49.7207 249.674 50.0176 249.619 50.2598 249.51C50.5059 249.396 50.6934 249.236 50.8223 249.029C50.9512 248.822 51.0156 248.58 51.0156 248.303ZM59.0488 249.609V250.5H53.4648V249.721L56.2598 246.609C56.6035 246.227 56.8691 245.902 57.0566 245.637C57.248 245.367 57.3809 245.127 57.4551 244.916C57.5332 244.701 57.5723 244.482 57.5723 244.26C57.5723 243.979 57.5137 243.725 57.3965 243.498C57.2832 243.268 57.1152 243.084 56.8926 242.947C56.6699 242.811 56.4004 242.742 56.084 242.742C55.7051 242.742 55.3887 242.816 55.1348 242.965C54.8848 243.109 54.6973 243.312 54.5723 243.574C54.4473 243.836 54.3848 244.137 54.3848 244.477H53.3008C53.3008 243.996 53.4062 243.557 53.6172 243.158C53.8281 242.76 54.1406 242.443 54.5547 242.209C54.9688 241.971 55.4785 241.852 56.084 241.852C56.623 241.852 57.084 241.947 57.4668 242.139C57.8496 242.326 58.1426 242.592 58.3457 242.936C58.5527 243.275 58.6562 243.674 58.6562 244.131C58.6562 244.381 58.6133 244.635 58.5273 244.893C58.4453 245.146 58.3301 245.4 58.1816 245.654C58.0371 245.908 57.8672 246.158 57.6719 246.404C57.4805 246.65 57.2754 246.893 57.0566 247.131L54.7715 249.609H59.0488ZM60.8477 241.969H61.9434L64.7383 248.924L67.5273 241.969H68.6289L65.1602 250.5H64.3047L60.8477 241.969ZM60.4902 241.969H61.457L61.6152 247.172V250.5H60.4902V241.969ZM68.0137 241.969H68.9805V250.5H67.8555V247.172L68.0137 241.969Z" fill="#333333"/>
<path d="M49.9492 284.086V285.873H49.0703V284.086H49.9492ZM49.8438 293.654V295.219H48.9707V293.654H49.8438ZM51.0156 291.803C51.0156 291.568 50.9629 291.357 50.8574 291.17C50.752 290.982 50.5781 290.811 50.3359 290.654C50.0938 290.498 49.7695 290.354 49.3633 290.221C48.8711 290.068 48.4453 289.883 48.0859 289.664C47.7305 289.445 47.4551 289.174 47.2598 288.85C47.0684 288.525 46.9727 288.133 46.9727 287.672C46.9727 287.191 47.0762 286.777 47.2832 286.43C47.4902 286.082 47.7832 285.814 48.1621 285.627C48.541 285.439 48.9863 285.346 49.498 285.346C49.8965 285.346 50.252 285.406 50.5645 285.527C50.877 285.645 51.1406 285.82 51.3555 286.055C51.5742 286.289 51.7402 286.576 51.8535 286.916C51.9707 287.256 52.0293 287.648 52.0293 288.094H50.9512C50.9512 287.832 50.9199 287.592 50.8574 287.373C50.7949 287.154 50.7012 286.965 50.5762 286.805C50.4512 286.641 50.2988 286.516 50.1191 286.43C49.9395 286.34 49.7324 286.295 49.498 286.295C49.1699 286.295 48.8984 286.352 48.6836 286.465C48.4727 286.578 48.3164 286.738 48.2148 286.945C48.1133 287.148 48.0625 287.385 48.0625 287.654C48.0625 287.904 48.1133 288.123 48.2148 288.311C48.3164 288.498 48.4883 288.668 48.7305 288.82C48.9766 288.969 49.3145 289.115 49.7441 289.26C50.248 289.42 50.6758 289.609 51.0273 289.828C51.3789 290.043 51.6465 290.309 51.8301 290.625C52.0137 290.938 52.1055 291.326 52.1055 291.791C52.1055 292.295 51.9922 292.721 51.7656 293.068C51.5391 293.412 51.2207 293.674 50.8105 293.854C50.4004 294.033 49.9199 294.123 49.3691 294.123C49.0371 294.123 48.709 294.078 48.3848 293.988C48.0605 293.898 47.7676 293.752 47.5059 293.549C47.2441 293.342 47.0352 293.07 46.8789 292.734C46.7227 292.395 46.6445 291.979 46.6445 291.486H47.7344C47.7344 291.818 47.7812 292.094 47.875 292.312C47.9727 292.527 48.1016 292.699 48.2617 292.828C48.4219 292.953 48.5977 293.043 48.7891 293.098C48.9844 293.148 49.1777 293.174 49.3691 293.174C49.7207 293.174 50.0176 293.119 50.2598 293.01C50.5059 292.896 50.6934 292.736 50.8223 292.529C50.9512 292.322 51.0156 292.08 51.0156 291.803ZM57.0215 285.422V294H55.9375V286.775L53.752 287.572V286.594L56.8516 285.422H57.0215ZM60.8477 285.469H61.9434L64.7383 292.424L67.5273 285.469H68.6289L65.1602 294H64.3047L60.8477 285.469ZM60.4902 285.469H61.457L61.6152 290.672V294H60.4902V285.469ZM68.0137 285.469H68.9805V294H67.8555V290.672L68.0137 285.469Z" fill="#333333"/>
<defs>
<linearGradient id="paint0_linear_17_2206" x1="254.373" y1="56.0254" x2="254.373" y2="340" gradientUnits="userSpaceOnUse">
<stop stop-color="#7B61FF"/>
<stop offset="1" stop-color="#7B61FF" stop-opacity="0"/>
</linearGradient>
<clipPath id="clip0_17_2206">
<rect width="470" height="283.975" fill="white" transform="matrix(-1 0 0 1 570 56.0254)"/>
</clipPath>
<clipPath id="clip1_17_2206">
<rect width="470" height="284.109" fill="white" transform="matrix(-1 0 0 1 570 55.8906)"/>
</clipPath>
</defs>
</svg>
